<svg xmlns="http://www.w3.org/2000/svg" width="48in" height="72in" viewBox="0 0 48 72">
<rect x="0" y="0" width="48" height="72" fill="white"/>
<rect x="2" y="2" width="2" height="2" fill="black"/>
<rect x="6" y="2" width="2" height="2" fill="black"/>
<rect x="10" y="2" width="2" height="2" fill="black"/>
<rect x="14" y="2" width="2" height="2" fill="black"/>
<rect x="18" y="2" width="2" height="2" fill="black"/>
<rect x="22" y="2" width="2" height="2" fill="black"/>
<rect x="26" y="2" width="2" height="2" fill="black"/>
<rect x="30" y="2" width="2" height="2" fill="black"/>
<rect x="34" y="2" width="2" height="2" fill="black"/>
<rect x="38" y="2" width="2" height="2" fill="black"/>
<rect x="42" y="2" width="2" height="2" fill="black"/>
<rect x="4" y="4" width="2" height="2" fill="black"/>
<rect x="8" y="4" width="2" height="2" fill="black"/>
<rect x="12" y="4" width="2" height="2" fill="black"/>
<rect x="16" y="4" width="2" height="2" fill="black"/>
<rect x="20" y="4" width="2" height="2" fill="black"/>
<rect x="24" y="4" width="2" height="2" fill="black"/>
<rect x="28" y="4" width="2" height="2" fill="black"/>
<rect x="32" y="4" width="2" height="2" fill="black"/>
<rect x="36" y="4" width="2" height="2" fill="black"/>
<rect x="40" y="4" width="2" height="2" fill="black"/>
<rect x="44" y="4" width="2" height="2" fill="black"/>
<rect x="2" y="6" width="2" height="2" fill="black"/>
<rect x="6" y="6" width="2" height="2" fill="black"/>
<rect x="10" y="6" width="2" height="2" fill="black"/>
<rect x="14" y="6" width="2" height="2" fill="black"/>
<rect x="18" y="6" width="2" height="2" fill="black"/>
<rect x="22" y="6" width="2" height="2" fill="black"/>
<rect x="26" y="6" width="2" height="2" fill="black"/>
<rect x="30" y="6" width="2" height="2" fill="black"/>
<rect x="34" y="6" width="2" height="2" fill="black"/>
<rect x="38" y="6" width="2" height="2" fill="black"/>
<rect x="42" y="6" width="2" height="2" fill="black"/>
<rect x="4" y="8" width="2" height="2" fill="black"/>
<rect x="8" y="8" width="2" height="2" fill="black"/>
<rect x="12" y="8" width="2" height="2" fill="black"/>
<rect x="16" y="8" width="2" height="2" fill="black"/>
<rect x="20" y="8" width="2" height="2" fill="black"/>
<rect x="24" y="8" width="2" height="2" fill="black"/>
<rect x="28" y="8" width="2" height="2" fill="black"/>
<rect x="32" y="8" width="2" height="2" fill="black"/>
<rect x="36" y="8" width="2" height="2" fill="black"/>
<rect x="40" y="8" width="2" height="2" fill="black"/>
<rect x="44" y="8" width="2" height="2" fill="black"/>
<rect x="2" y="10" width="2" height="2" fill="black"/>
<rect x="6" y="10" width="2" height="2" fill="black"/>
<rect x="10" y="10" width="2" height="2" fill="black"/>
<rect x="14" y="10" width="2" height="2" fill="black"/>
<rect x="18" y="10" width="2" height="2" fill="black"/>
<rect x="22" y="10" width="2" height="2" fill="black"/>
<rect x="26" y="10" width="2" height="2" fill="black"/>
<rect x="30" y="10" width="2" height="2" fill="black"/>
<rect x="34" y="10" width="2" height="2" fill="black"/>
<rect x="38" y="10" width="2" height="2" fill="black"/>
<rect x="42" y="10" width="2" height="2" fill="black"/>
<rect x="4" y="12" width="2" height="2" fill="black"/>
<rect x="8" y="12" width="2" height="2" fill="black"/>
<rect x="12" y="12" width="2" height="2" fill="black"/>
<rect x="16" y="12" width="2" height="2" fill="black"/>
<rect x="20" y="12" width="2" height="2" fill="black"/>
<rect x="24" y="12" width="2" height="2" fill="black"/>
<rect x="28" y="12" width="2" height="2" fill="black"/>
<rect x="32" y="12" width="2" height="2" fill="black"/>
<rect x="36" y="12" width="2" height="2" fill="black"/>
<rect x="40" y="12" width="2" height="2" fill="black"/>
<rect x="44" y="12" width="2" height="2" fill="black"/>
<rect x="2" y="14" width="2" height="2" fill="black"/>
<rect x="6" y="14" width="2" height="2" fill="black"/>
<rect x="10" y="14" width="2" height="2" fill="black"/>
<rect x="14" y="14" width="2" height="2" fill="black"/>
<rect x="18" y="14" width="2" height="2" fill="black"/>
<rect x="22" y="14" width="2" height="2" fill="black"/>
<rect x="26" y="14" width="2" height="2" fill="black"/>
<rect x="30" y="14" width="2" height="2" fill="black"/>
<rect x="34" y="14" width="2" height="2" fill="black"/>
<rect x="38" y="14" width="2" height="2" fill="black"/>
<rect x="42" y="14" width="2" height="2" fill="black"/>
<rect x="4" y="16" width="2" height="2" fill="black"/>
<rect x="8" y="16" width="2" height="2" fill="black"/>
<rect x="12" y="16" width="2" height="2" fill="black"/>
<rect x="16" y="16" width="2" height="2" fill="black"/>
<rect x="20" y="16" width="2" height="2" fill="black"/>
<rect x="24" y="16" width="2" height="2" fill="black"/>
<rect x="28" y="16" width="2" height="2" fill="black"/>
<rect x="32" y="16" width="2" height="2" fill="black"/>
<rect x="36" y="16" width="2" height="2" fill="black"/>
<rect x="40" y="16" width="2" height="2" fill="black"/>
<rect x="44" y="16" width="2" height="2" fill="black"/>
<rect x="2" y="18" width="2" height="2" fill="black"/>
<rect x="6" y="18" width="2" height="2" fill="black"/>
<rect x="10" y="18" width="2" height="2" fill="black"/>
<rect x="14" y="18" width="2" height="2" fill="black"/>
<rect x="18" y="18" width="2" height="2" fill="black"/>
<rect x="22" y="18" width="2" height="2" fill="black"/>
<rect x="26" y="18" width="2" height="2" fill="black"/>
<rect x="30" y="18" width="2" height="2" fill="black"/>
<rect x="34" y="18" width="2" height="2" fill="black"/>
<rect x="38" y="18" width="2" height="2" fill="black"/>
<rect x="42" y="18" width="2" height="2" fill="black"/>
<rect x="4" y="20" width="2" height="2" fill="black"/>
<rect x="8" y="20" width="2" height="2" fill="black"/>
<rect x="12" y="20" width="2" height="2" fill="black"/>
<rect x="16" y="20" width="2" height="2" fill="black"/>
<rect x="20" y="20" width="2" height="2" fill="black"/>
<rect x="24" y="20" width="2" height="2" fill="black"/>
<rect x="28" y="20" width="2" height="2" fill="black"/>
<rect x="32" y="20" width="2" height="2" fill="black"/>
<rect x="36" y="20" width="2" height="2" fill="black"/>
<rect x="40" y="20" width="2" height="2" fill="black"/>
<rect x="44" y="20" width="2" height="2" fill="black"/>
<rect x="2" y="22" width="2" height="2" fill="black"/>
<rect x="6" y="22" width="2" height="2" fill="black"/>
<rect x="10" y="22" width="2" height="2" fill="black"/>
<rect x="14" y="22" width="2" height="2" fill="black"/>
<rect x="18" y="22" width="2" height="2" fill="black"/>
<rect x="22" y="22" width="2" height="2" fill="black"/>
<rect x="26" y="22" width="2" height="2" fill="black"/>
<rect x="30" y="22" width="2" height="2" fill="black"/>
<rect x="34" y="22" width="2" height="2" fill="black"/>
<rect x="38" y="22" width="2" height="2" fill="black"/>
<rect x="42" y="22" width="2" height="2" fill="black"/>
<rect x="4" y="24" width="2" height="2" fill="black"/>
<rect x="8" y="24" width="2" height="2" fill="black"/>
<rect x="12" y="24" width="2" height="2" fill="black"/>
<rect x="16" y="24" width="2" height="2" fill="black"/>
<rect x="20" y="24" width="2" height="2" fill="black"/>
<rect x="24" y="24" width="2" height="2" fill="black"/>
<rect x="28" y="24" width="2" height="2" fill="black"/>
<rect x="32" y="24" width="2" height="2" fill="black"/>
<rect x="36" y="24" width="2" height="2" fill="black"/>
<rect x="40" y="24" width="2" height="2" fill="black"/>
<rect x="44" y="24" width="2" height="2" fill="black"/>
<rect x="2" y="26" width="2" height="2" fill="black"/>
<rect x="6" y="26" width="2" height="2" fill="black"/>
<rect x="10" y="26" width="2" height="2" fill="black"/>
<rect x="14" y="26" width="2" height="2" fill="black"/>
<rect x="18" y="26" width="2" height="2" fill="black"/>
<rect x="22" y="26" width="2" height="2" fill="black"/>
<rect x="26" y="26" width="2" height="2" fill="black"/>
<rect x="30" y="26" width="2" height="2" fill="black"/>
<rect x="34" y="26" width="2" height="2" fill="black"/>
<rect x="38" y="26" width="2" height="2" fill="black"/>
<rect x="42" y="26" width="2" height="2" fill="black"/>
<rect x="4" y="28" width="2" height="2" fill="black"/>
<rect x="8" y="28" width="2" height="2" fill="black"/>
<rect x="12" y="28" width="2" height="2" fill="black"/>
<rect x="16" y="28" width="2" height="2" fill="black"/>
<rect x="20" y="28" width="2" height="2" fill="black"/>
<rect x="24" y="28" width="2" height="2" fill="black"/>
<rect x="28" y="28" width="2" height="2" fill="black"/>
<rect x="32" y="28" width="2" height="2" fill="black"/>
<rect x="36" y="28" width="2" height="2" fill="black"/>
<rect x="40" y="28" width="2" height="2" fill="black"/>
<rect x="44" y="28" width="2" height="2" fill="black"/>
<rect x="2" y="30" width="2" height="2" fill="black"/>
<rect x="6" y="30" width="2" height="2" fill="black"/>
<rect x="10" y="30" width="2" height="2" fill="black"/>
<rect x="14" y="30" width="2" height="2" fill="black"/>
<rect x="18" y="30" width="2" height="2" fill="black"/>
<rect x="22" y="30" width="2" height="2" fill="black"/>
<rect x="26" y="30" width="2" height="2" fill="black"/>
<rect x="30" y="30" width="2" height="2" fill="black"/>
<rect x="34" y="30" width="2" height="2" fill="black"/>
<rect x="38" y="30" width="2" height="2" fill="black"/>
<rect x="42" y="30" width="2" height="2" fill="black"/>
<rect x="4" y="32" width="2" height="2" fill="black"/>
<rect x="8" y="32" width="2" height="2" fill="black"/>
<rect x="12" y="32" width="2" height="2" fill="black"/>
<rect x="16" y="32" width="2" height="2" fill="black"/>
<rect x="20" y="32" width="2" height="2" fill="black"/>
<rect x="24" y="32" width="2" height="2" fill="black"/>
<rect x="28" y="32" width="2" height="2" fill="black"/>
<rect x="32" y="32" width="2" height="2" fill="black"/>
<rect x="36" y="32" width="2" height="2" fill="black"/>
<rect x="40" y="32" width="2" height="2" fill="black"/>
<rect x="44" y="32" width="2" height="2" fill="black"/>
<rect x="2" y="34" width="2" height="2" fill="black"/>
<rect x="6" y="34" width="2" height="2" fill="black"/>
<rect x="10" y="34" width="2" height="2" fill="black"/>
<rect x="14" y="34" width="2" height="2" fill="black"/>
<rect x="18" y="34" width="2" height="2" fill="black"/>
<rect x="22" y="34" width="2" height="2" fill="black"/>
<rect x="26" y="34" width="2" height="2" fill="black"/>
<rect x="30" y="34" width="2" height="2" fill="black"/>
<rect x="34" y="34" width="2" height="2" fill="black"/>
<rect x="38" y="34" width="2" height="2" fill="black"/>
<rect x="42" y="34" width="2" height="2" fill="black"/>
<rect x="4" y="36" width="2" height="2" fill="black"/>
<rect x="8" y="36" width="2" height="2" fill="black"/>
<rect x="12" y="36" width="2" height="2" fill="black"/>
<rect x="16" y="36" width="2" height="2" fill="black"/>
<rect x="20" y="36" width="2" height="2" fill="black"/>
<rect x="24" y="36" width="2" height="2" fill="black"/>
<rect x="28" y="36" width="2" height="2" fill="black"/>
<rect x="32" y="36" width="2" height="2" fill="black"/>
<rect x="36" y="36" width="2" height="2" fill="black"/>
<rect x="40" y="36" width="2" height="2" fill="black"/>
<rect x="44" y="36" width="2" height="2" fill="black"/>
<rect x="2" y="38" width="2" height="2" fill="black"/>
<rect x="6" y="38" width="2" height="2" fill="black"/>
<rect x="10" y="38" width="2" height="2" fill="black"/>
<rect x="14" y="38" width="2" height="2" fill="black"/>
<rect x="18" y="38" width="2" height="2" fill="black"/>
<rect x="22" y="38" width="2" height="2" fill="black"/>
<rect x="26" y="38" width="2" height="2" fill="black"/>
<rect x="30" y="38" width="2" height="2" fill="black"/>
<rect x="34" y="38" width="2" height="2" fill="black"/>
<rect x="38" y="38" width="2" height="2" fill="black"/>
<rect x="42" y="38" width="2" height="2" fill="black"/>
<rect x="4" y="40" width="2" height="2" fill="black"/>
<rect x="8" y="40" width="2" height="2" fill="black"/>
<rect x="12" y="40" width="2" height="2" fill="black"/>
<rect x="16" y="40" width="2" height="2" fill="black"/>
<rect x="20" y="40" width="2" height="2" fill="black"/>
<rect x="24" y="40" width="2" height="2" fill="black"/>
<rect x="28" y="40" width="2" height="2" fill="black"/>
<rect x="32" y="40" width="2" height="2" fill="black"/>
<rect x="36" y="40" width="2" height="2" fill="black"/>
<rect x="40" y="40" width="2" height="2" fill="black"/>
<rect x="44" y="40" width="2" height="2" fill="black"/>
<rect x="2" y="42" width="2" height="2" fill="black"/>
<rect x="6" y="42" width="2" height="2" fill="black"/>
<rect x="10" y="42" width="2" height="2" fill="black"/>
<rect x="14" y="42" width="2" height="2" fill="black"/>
<rect x="18" y="42" width="2" height="2" fill="black"/>
<rect x="22" y="42" width="2" height="2" fill="black"/>
<rect x="26" y="42" width="2" height="2" fill="black"/>
<rect x="30" y="42" width="2" height="2" fill="black"/>
<rect x="34" y="42" width="2" height="2" fill="black"/>
<rect x="38" y="42" width="2" height="2" fill="black"/>
<rect x="42" y="42" width="2" height="2" fill="black"/>
<rect x="4" y="44" width="2" height="2" fill="black"/>
<rect x="8" y="44" width="2" height="2" fill="black"/>
<rect x="12" y="44" width="2" height="2" fill="black"/>
<rect x="16" y="44" width="2" height="2" fill="black"/>
<rect x="20" y="44" width="2" height="2" fill="black"/>
<rect x="24" y="44" width="2" height="2" fill="black"/>
<rect x="28" y="44" width="2" height="2" fill="black"/>
<rect x="32" y="44" width="2" height="2" fill="black"/>
<rect x="36" y="44" width="2" height="2" fill="black"/>
<rect x="40" y="44" width="2" height="2" fill="black"/>
<rect x="44" y="44" width="2" height="2" fill="black"/>
<rect x="2" y="46" width="2" height="2" fill="black"/>
<rect x="6" y="46" width="2" height="2" fill="black"/>
<rect x="10" y="46" width="2" height="2" fill="black"/>
<rect x="14" y="46" width="2" height="2" fill="black"/>
<rect x="18" y="46" width="2" height="2" fill="black"/>
<rect x="22" y="46" width="2" height="2" fill="black"/>
<rect x="26" y="46" width="2" height="2" fill="black"/>
<rect x="30" y="46" width="2" height="2" fill="black"/>
<rect x="34" y="46" width="2" height="2" fill="black"/>
<rect x="38" y="46" width="2" height="2" fill="black"/>
<rect x="42" y="46" width="2" height="2" fill="black"/>
<rect x="4" y="48" width="2" height="2" fill="black"/>
<rect x="8" y="48" width="2" height="2" fill="black"/>
<rect x="12" y="48" width="2" height="2" fill="black"/>
<rect x="16" y="48" width="2" height="2" fill="black"/>
<rect x="20" y="48" width="2" height="2" fill="black"/>
<rect x="24" y="48" width="2" height="2" fill="black"/>
<rect x="28" y="48" width="2" height="2" fill="black"/>
<rect x="32" y="48" width="2" height="2" fill="black"/>
<rect x="36" y="48" width="2" height="2" fill="black"/>
<rect x="40" y="48" width="2" height="2" fill="black"/>
<rect x="44" y="48" width="2" height="2" fill="black"/>
<rect x="2" y="50" width="2" height="2" fill="black"/>
<rect x="6" y="50" width="2" height="2" fill="black"/>
<rect x="10" y="50" width="2" height="2" fill="black"/>
<rect x="14" y="50" width="2" height="2" fill="black"/>
<rect x="18" y="50" width="2" height="2" fill="black"/>
<rect x="22" y="50" width="2" height="2" fill="black"/>
<rect x="26" y="50" width="2" height="2" fill="black"/>
<rect x="30" y="50" width="2" height="2" fill="black"/>
<rect x="34" y="50" width="2" height="2" fill="black"/>
<rect x="38" y="50" width="2" height="2" fill="black"/>
<rect x="42" y="50" width="2" height="2" fill="black"/>
<rect x="4" y="52" width="2" height="2" fill="black"/>
<rect x="8" y="52" width="2" height="2" fill="black"/>
<rect x="12" y="52" width="2" height="2" fill="black"/>
<rect x="16" y="52" width="2" height="2" fill="black"/>
<rect x="20" y="52" width="2" height="2" fill="black"/>
<rect x="24" y="52" width="2" height="2" fill="black"/>
<rect x="28" y="52" width="2" height="2" fill="black"/>
<rect x="32" y="52" width="2" height="2" fill="black"/>
<rect x="36" y="52" width="2" height="2" fill="black"/>
<rect x="40" y="52" width="2" height="2" fill="black"/>
<rect x="44" y="52" width="2" height="2" fill="black"/>
<rect x="2" y="54" width="2" height="2" fill="black"/>
<rect x="6" y="54" width="2" height="2" fill="black"/>
<rect x="10" y="54" width="2" height="2" fill="black"/>
<rect x="14" y="54" width="2" height="2" fill="black"/>
<rect x="18" y="54" width="2" height="2" fill="black"/>
<rect x="22" y="54" width="2" height="2" fill="black"/>
<rect x="26" y="54" width="2" height="2" fill="black"/>
<rect x="30" y="54" width="2" height="2" fill="black"/>
<rect x="34" y="54" width="2" height="2" fill="black"/>
<rect x="38" y="54" width="2" height="2" fill="black"/>
<rect x="42" y="54" width="2" height="2" fill="black"/>
<rect x="4" y="56" width="2" height="2" fill="black"/>
<rect x="8" y="56" width="2" height="2" fill="black"/>
<rect x="12" y="56" width="2" height="2" fill="black"/>
<rect x="16" y="56" width="2" height="2" fill="black"/>
<rect x="20" y="56" width="2" height="2" fill="black"/>
<rect x="24" y="56" width="2" height="2" fill="black"/>
<rect x="28" y="56" width="2" height="2" fill="black"/>
<rect x="32" y="56" width="2" height="2" fill="black"/>
<rect x="36" y="56" width="2" height="2" fill="black"/>
<rect x="40" y="56" width="2" height="2" fill="black"/>
<rect x="44" y="56" width="2" height="2" fill="black"/>
<rect x="2" y="58" width="2" height="2" fill="black"/>
<rect x="6" y="58" width="2" height="2" fill="black"/>
<rect x="10" y="58" width="2" height="2" fill="black"/>
<rect x="14" y="58" width="2" height="2" fill="black"/>
<rect x="18" y="58" width="2" height="2" fill="black"/>
<rect x="22" y="58" width="2" height="2" fill="black"/>
<rect x="26" y="58" width="2" height="2" fill="black"/>
<rect x="30" y="58" width="2" height="2" fill="black"/>
<rect x="34" y="58" width="2" height="2" fill="black"/>
<rect x="38" y="58" width="2" height="2" fill="black"/>
<rect x="42" y="58" width="2" height="2" fill="black"/>
<rect x="4" y="60" width="2" height="2" fill="black"/>
<rect x="8" y="60" width="2" height="2" fill="black"/>
<rect x="12" y="60" width="2" height="2" fill="black"/>
<rect x="16" y="60" width="2" height="2" fill="black"/>
<rect x="20" y="60" width="2" height="2" fill="black"/>
<rect x="24" y="60" width="2" height="2" fill="black"/>
<rect x="28" y="60" width="2" height="2" fill="black"/>
<rect x="32" y="60" width="2" height="2" fill="black"/>
<rect x="36" y="60" width="2" height="2" fill="black"/>
<rect x="40" y="60" width="2" height="2" fill="black"/>
<rect x="44" y="60" width="2" height="2" fill="black"/>
<rect x="2" y="62" width="2" height="2" fill="black"/>
<rect x="6" y="62" width="2" height="2" fill="black"/>
<rect x="10" y="62" width="2" height="2" fill="black"/>
<rect x="14" y="62" width="2" height="2" fill="black"/>
<rect x="18" y="62" width="2" height="2" fill="black"/>
<rect x="22" y="62" width="2" height="2" fill="black"/>
<rect x="26" y="62" width="2" height="2" fill="black"/>
<rect x="30" y="62" width="2" height="2" fill="black"/>
<rect x="34" y="62" width="2" height="2" fill="black"/>
<rect x="38" y="62" width="2" height="2" fill="black"/>
<rect x="42" y="62" width="2" height="2" fill="black"/>
<rect x="4" y="64" width="2" height="2" fill="black"/>
<rect x="8" y="64" width="2" height="2" fill="black"/>
<rect x="12" y="64" width="2" height="2" fill="black"/>
<rect x="16" y="64" width="2" height="2" fill="black"/>
<rect x="20" y="64" width="2" height="2" fill="black"/>
<rect x="24" y="64" width="2" height="2" fill="black"/>
<rect x="28" y="64" width="2" height="2" fill="black"/>
<rect x="32" y="64" width="2" height="2" fill="black"/>
<rect x="36" y="64" width="2" height="2" fill="black"/>
<rect x="40" y="64" width="2" height="2" fill="black"/>
<rect x="44" y="64" width="2" height="2" fill="black"/>
<rect x="2" y="66" width="2" height="2" fill="black"/>
<rect x="6" y="66" width="2" height="2" fill="black"/>
<rect x="10" y="66" width="2" height="2" fill="black"/>
<rect x="14" y="66" width="2" height="2" fill="black"/>
<rect x="18" y="66" width="2" height="2" fill="black"/>
<rect x="22" y="66" width="2" height="2" fill="black"/>
<rect x="26" y="66" width="2" height="2" fill="black"/>
<rect x="30" y="66" width="2" height="2" fill="black"/>
<rect x="34" y="66" width="2" height="2" fill="black"/>
<rect x="38" y="66" width="2" height="2" fill="black"/>
<rect x="42" y="66" width="2" height="2" fill="black"/>
<rect x="4" y="68" width="2" height="2" fill="black"/>
<rect x="8" y="68" width="2" height="2" fill="black"/>
<rect x="12" y="68" width="2" height="2" fill="black"/>
<rect x="16" y="68" width="2" height="2" fill="black"/>
<rect x="20" y="68" width="2" height="2" fill="black"/>
<rect x="24" y="68" width="2" height="2" fill="black"/>
<rect x="28" y="68" width="2" height="2" fill="black"/>
<rect x="32" y="68" width="2" height="2" fill="black"/>
<rect x="36" y="68" width="2" height="2" fill="black"/>
<rect x="40" y="68" width="2" height="2" fill="black"/>
<rect x="44" y="68" width="2" height="2" fill="black"/>
</svg>